# xmcd
#
# Track frame offsets:
#	150
#	15215
#	29580
#	43250
#	56747
#	71327
#	88745
#	102910
#	117332
#	132640
#	147277
#	158355
#
# Disc length: 2328 seconds
#
# Revision: 0
# Processed by: cddbd v1.4PL0 Copyright (c) Steve Scherf et al.
# Submitted via: dBpowerAMP V4.0
#
DISCID=a109160c
DTITLE=Banda la Pirinola - Dáme Amor
DYEAR=1900
DGENRE=Banda
TTITLE0=Dame amor
TTITLE1=Tan lejos
TTITLE2=Jacarandosa
TTITLE3=Indita mía
TTITLE4=Si nunca
TTITLE5=Mi símbolo sexual
TTITLE6=Tu piel
TTITLE7=Piensa en mi
TTITLE8=Si te perdiera
TTITLE9=Con cartitas
TTITLE10=Que hare
TTITLE11=Llora mi corazón
EXTD=
EXTT0=
EXTT1=
EXTT2=
EXTT3=
EXTT4=
EXTT5=
EXTT6=
EXTT7=
EXTT8=
EXTT9=
EXTT10=
EXTT11=
PLAYORDER=
